<svg xmlns="http://www.w3.org/2000/svg"  width="100%" height="10" fill="#6A6A6A" version="1.1" viewBox="0 0 700 700">
 <path d="m122.5 490c0 9.293 3.6914 18.184 10.254 24.746s15.473 10.254 24.746 10.254h385c9.2734 0 18.184-3.6914 24.746-10.254 5.8789-5.8828 9.4648-13.652 10.133-21.875l0.12109-2.8711-0.015625 0.91016 0.015625-0.91016c0-86.992-70.508-157.5-157.5-157.5h-140c-86.992 0-157.5 70.508-157.5 157.5zm227.5-455c-72.434 0-131.25 58.816-131.25 131.25s58.816 131.25 131.25 131.25 131.25-58.816 131.25-131.25-58.816-131.25-131.25-131.25z" fill-rule="evenodd"/>
</svg>