<svg xmlns="http://www.w3.org/2000/svg" width="100%" height="10" version="1.1" viewBox="0 0 700 700" fill="#6A6A6A">
 <path d="m245 280h-35c-9.6602 0-17.5-7.8398-17.5-17.5s7.8398-17.5 17.5-17.5h35c9.6602 0 17.5 7.8398 17.5 17.5s-7.8398 17.5-17.5 17.5zm140-17.5c0-9.6602-7.8398-17.5-17.5-17.5h-35c-9.6602 0-17.5 7.8398-17.5 17.5s7.8398 17.5 17.5 17.5h35c9.6602 0 17.5-7.8398 17.5-17.5zm122.5 0c0-9.6602-7.8398-17.5-17.5-17.5h-35c-9.6602 0-17.5 7.8398-17.5 17.5s7.8398 17.5 17.5 17.5h35c9.6602 0 17.5-7.8398 17.5-17.5zm-245 87.5c0-9.6602-7.8398-17.5-17.5-17.5h-35c-9.6602 0-17.5 7.8398-17.5 17.5s7.8398 17.5 17.5 17.5h35c9.6602 0 17.5-7.8398 17.5-17.5zm122.5 0c0-9.6602-7.8398-17.5-17.5-17.5h-35c-9.6602 0-17.5 7.8398-17.5 17.5s7.8398 17.5 17.5 17.5h35c9.6602 0 17.5-7.8398 17.5-17.5zm122.5 0c0-9.6602-7.8398-17.5-17.5-17.5h-35c-9.6602 0-17.5 7.8398-17.5 17.5s7.8398 17.5 17.5 17.5h35c9.6602 0 17.5-7.8398 17.5-17.5zm-245 87.5c0-9.6602-7.8398-17.5-17.5-17.5h-35c-9.6602 0-17.5 7.8398-17.5 17.5s7.8398 17.5 17.5 17.5h35c9.6602 0 17.5-7.8398 17.5-17.5zm122.5 0c0-9.6602-7.8398-17.5-17.5-17.5h-35c-9.6602 0-17.5 7.8398-17.5 17.5s7.8398 17.5 17.5 17.5h35c9.6602 0 17.5-7.8398 17.5-17.5zm122.5 0c0-9.6602-7.8398-17.5-17.5-17.5h-35c-9.6602 0-17.5 7.8398-17.5 17.5s7.8398 17.5 17.5 17.5h35c9.6602 0 17.5-7.8398 17.5-17.5zm35-367.5h-35v-17.5c0-9.6602-7.8398-17.5-17.5-17.5s-17.5 7.8398-17.5 17.5v17.5h-245v-17.5c0-9.6602-7.8398-17.5-17.5-17.5s-17.5 7.8398-17.5 17.5v17.5h-35c-28.945 0-52.5 23.555-52.5 52.5v349.12c0 28.945 23.555 52.5 52.5 52.5h385c28.945 0 52.5-23.555 52.5-52.5v-349.12c0-28.945-23.555-52.5-52.5-52.5zm-385 35h35v20.004c0 9.6602 7.8398 17.5 17.5 17.5s17.5-7.8398 17.5-17.5v-20.004h245v20.004c0 9.6602 7.8398 17.5 17.5 17.5s17.5-7.8398 17.5-17.5v-20.004h35c9.6406 0 17.5 7.8594 17.5 17.5v52.5h-420v-52.5c0-9.6406 7.8594-17.5 17.5-17.5zm385 384.12h-385c-9.6406 0-17.5-7.8594-17.5-17.5v-261.62h420v261.62c0 9.6406-7.8594 17.5-17.5 17.5z"/>
</svg>