<svg xmlns="http://www.w3.org/2000/svg" xmlns:xlink="http://www.w3.org/1999/xlink" version="1.1" width="1000" height="1000" viewBox="0 0 1000 1000" xml:space="preserve">
<desc>Created with Fabric.js 3.5.0</desc>
<defs>
</defs>
<rect x="0" y="0" width="100%" height="100%" fill="rgba(255,255,255,0)"/>
<g transform="matrix(1.4771 0 0 1.4771 500.0203 638.9402)" id="747492">
<g style="" vector-effect="non-scaling-stroke">
		<g transform="matrix(1.3333 0 0 1.3333 -0.0079 -93.3402)">
<path style="stroke: none; stroke-width: 1; stroke-dasharray: none; stroke-linecap: butt; stroke-dashoffset: 0; stroke-linejoin: miter; stroke-miterlimit: 4; is-custom-font: none; font-file-url: none; fill: #525252; fill-rule: evenodd; opacity: 1;" transform=" translate(-350.0001, -279.998)" d="m 120.4 154 c -1.4648 0 -2.8438 0.3125 -4.1992 0.875 s -2.6367 1.4141 -3.6758 2.4492 c -1.0352 1.0352 -1.8906 2.3203 -2.4492 3.6758 c -0.55859 1.3555 -0.875 2.7344 -0.875 4.1992 v 229.6 c 0 1.4648 0.31641 3.0195 0.875 4.375 c 0.55859 1.3555 1.4141 2.4648 2.4492 3.5 c 1.0352 1.0391 2.3203 1.8906 3.6758 2.4492 c 1.3555 0.5625 2.7344 0.875 4.1992 0.875 h 401.45 c 1.4648 0 3.0195 -0.3125 4.375 -0.875 c 1.3555 -0.5625 2.6367 -1.4141 3.6758 -2.4492 c 1.0352 -1.0352 1.8906 -2.1445 2.4492 -3.5 c 0.5625 -1.3555 0.69922 -2.9102 0.69922 -4.375 v -51.102 h 46.551 c 1.4648 0 3.0195 -0.14062 4.375 -0.69922 c 1.3555 -0.5625 2.6367 -1.4141 3.6758 -2.4492 c 1.0352 -1.0352 1.8906 -2.3203 2.4492 -3.6758 c 0.5625 -1.3555 0.69922 -2.9102 0.69922 -4.375 v -105 c 0 -1.4648 -0.13672 -2.8438 -0.69922 -4.1992 s -1.4141 -2.6367 -2.4492 -3.6758 c -1.0352 -1.0352 -2.3203 -1.8906 -3.6758 -2.4492 c -1.3555 -0.5625 -2.9102 -0.875 -4.375 -0.875 h -46.551 v -51.102 c 0 -1.4648 -0.14062 -2.8438 -0.69922 -4.1992 c -0.5625 -1.3555 -1.4141 -2.6367 -2.4492 -3.6758 c -1.0352 -1.0352 -2.3203 -1.8906 -3.6758 -2.4492 c -1.3555 -0.5625 -2.9102 -0.875 -4.375 -0.875 z m 11.199 22.398 h 379.05 v 207.2 h -379.05 z" stroke-linecap="round"/>
</g>
		<g transform="matrix(1.3333 0 0 1.3333 -204.1088 -93.3107)">
<path style="stroke: none; stroke-width: 1; stroke-dasharray: none; stroke-linecap: butt; stroke-dashoffset: 0; stroke-linejoin: miter; stroke-miterlimit: 4; is-custom-font: none; font-file-url: none; fill: #525252; fill-rule: evenodd; opacity: 1;" transform=" translate(-196.9195, -280.019)" d="m 168.47 198.78 c -9.0859 0 -16.523 7.4336 -16.523 16.523 v 129.49 c 0 9.0859 7.5781 16.465 16.523 16.465 h 56.902 c 8.9453 0 16.52 -7.3789 16.52 -16.465 v -129.49 c 0 -9.0859 -7.4336 -16.523 -16.52 -16.523 z" stroke-linecap="round"/>
</g>
		<g transform="matrix(1.3333 0 0 1.3333 -49.9735 -93.3107)">
<path style="stroke: none; stroke-width: 1; stroke-dasharray: none; stroke-linecap: butt; stroke-dashoffset: 0; stroke-linejoin: miter; stroke-miterlimit: 4; is-custom-font: none; font-file-url: none; fill: #525252; fill-rule: evenodd; opacity: 1;" transform=" translate(-312.521, -280.019)" d="m 284.07 198.78 c -9.0859 0 -16.52 7.4336 -16.52 16.523 v 129.49 c 0 9.0859 7.5781 16.465 16.52 16.465 h 56.902 c 8.9453 0 16.52 -7.3789 16.52 -16.465 v -129.49 c 0 -9.0859 -7.4336 -16.523 -16.52 -16.523 z" stroke-linecap="round"/>
</g>
		<g transform="matrix(1.3333 0 0 1.3333 -359.8956 378.4058)">
<path style="stroke: none; stroke-width: 1; stroke-dasharray: none; stroke-linecap: butt; stroke-dashoffset: 0; stroke-linejoin: miter; stroke-miterlimit: 4; is-custom-font: none; font-file-url: none; fill: #525252; fill-rule: nonzero; opacity: 1;" transform=" translate(-10.0785, 10.1954)" d="m 18.766 -1.125 c -0.96875 0.5 -1.9805 0.875 -3.0312 1.125 c -1.043 0.25781 -2.1367 0.39062 -3.2812 0.39062 c -3.3984 0 -6.0898 -0.94531 -8.0781 -2.8438 c -1.9922 -1.9062 -2.9844 -4.4844 -2.9844 -7.7344 c 0 -3.2578 0.99219 -5.8359 2.9844 -7.7344 c 1.9883 -1.9062 4.6797 -2.8594 8.0781 -2.8594 c 1.1445 0 2.2383 0.13281 3.2812 0.39062 c 1.0508 0.25 2.0625 0.625 3.0312 1.125 v 4.2188 c -0.98047 -0.65625 -1.9453 -1.1406 -2.8906 -1.4531 c -0.94922 -0.3125 -1.9492 -0.46875 -3 -0.46875 c -1.875 0 -3.3516 0.60547 -4.4219 1.8125 c -1.0742 1.1992 -1.6094 2.8555 -1.6094 4.9688 c 0 2.1055 0.53516 3.7617 1.6094 4.9688 c 1.0703 1.1992 2.5469 1.7969 4.4219 1.7969 c 1.0508 0 2.0508 -0.14844 3 -0.45312 c 0.94531 -0.3125 1.9102 -0.80078 2.8906 -1.4688 z" stroke-linecap="round"/>
</g>
		<g transform="matrix(1.3333 0 0 1.3333 -335.2038 381.5412)">
<path style="stroke: none; stroke-width: 1; stroke-dasharray: none; stroke-linecap: butt; stroke-dashoffset: 0; stroke-linejoin: miter; stroke-miterlimit: 4; is-custom-font: none; font-file-url: none; fill: #525252; fill-rule: nonzero; opacity: 1;" transform=" translate(-8.0465, 7.8439)" d="m 13.734 -11.141 c -0.4375 -0.19531 -0.87109 -0.34375 -1.2969 -0.4375 c -0.41797 -0.10156 -0.83984 -0.15625 -1.2656 -0.15625 c -1.2617 0 -2.2305 0.40625 -2.9062 1.2188 c -0.67969 0.80469 -1.0156 1.9531 -1.0156 3.4531 v 7.0625 h -4.8906 v -15.312 h 4.8906 v 2.5156 c 0.625 -1 1.3438 -1.7266 2.1562 -2.1875 c 0.82031 -0.46875 1.8008 -0.70312 2.9375 -0.70312 c 0.16406 0 0.34375 0.011719 0.53125 0.03125 c 0.19531 0.011719 0.47656 0.039062 0.84375 0.078125 z" stroke-linecap="round"/>
</g>
		<g transform="matrix(1.3333 0 0 1.3333 -314.9582 381.8018)">
<path style="stroke: none; stroke-width: 1; stroke-dasharray: none; stroke-linecap: butt; stroke-dashoffset: 0; stroke-linejoin: miter; stroke-miterlimit: 4; is-custom-font: none; font-file-url: none; fill: #525252; fill-rule: nonzero; opacity: 1;" transform=" translate(-9.4222, 7.6485)" d="m 17.641 -7.7031 v 1.4062 h -11.453 c 0.125 1.1484 0.53906 2.0078 1.25 2.5781 c 0.70703 0.57422 1.7031 0.85938 2.9844 0.85938 c 1.0312 0 2.082 -0.14844 3.1562 -0.45312 c 1.082 -0.3125 2.1914 -0.77344 3.3281 -1.3906 v 3.7656 c -1.1562 0.4375 -2.3125 0.76562 -3.4688 0.98438 c -1.1562 0.22656 -2.3125 0.34375 -3.4688 0.34375 c -2.7734 0 -4.9297 -0.70312 -6.4688 -2.1094 c -1.5312 -1.4062 -2.2969 -3.3789 -2.2969 -5.9219 c 0 -2.5 0.75391 -4.4609 2.2656 -5.8906 c 1.5078 -1.4375 3.582 -2.1562 6.2188 -2.1562 c 2.4062 0 4.332 0.73047 5.7812 2.1875 c 1.4453 1.4492 2.1719 3.3828 2.1719 5.7969 z m -5.0312 -1.625 c 0 -0.92578 -0.27344 -1.6719 -0.8125 -2.2344 c -0.54297 -0.57031 -1.25 -0.85938 -2.125 -0.85938 c -0.94922 0 -1.7188 0.26562 -2.3125 0.79688 s -0.96484 1.2969 -1.1094 2.2969 z" stroke-linecap="round"/>
</g>
		<g transform="matrix(1.3333 0 0 1.3333 -290.2763 381.8017)">
<path style="stroke: none; stroke-width: 1; stroke-dasharray: none; stroke-linecap: butt; stroke-dashoffset: 0; stroke-linejoin: miter; stroke-miterlimit: 4; is-custom-font: none; font-file-url: none; fill: #525252; fill-rule: nonzero; opacity: 1;" transform=" translate(-8.9453, 7.6485)" d="m 9.2188 -6.8906 c -1.0234 0 -1.793 0.17188 -2.3125 0.51562 c -0.51172 0.34375 -0.76562 0.85547 -0.76562 1.5312 c 0 0.625 0.20703 1.1172 0.625 1.4688 c 0.41406 0.34375 0.98828 0.51562 1.7188 0.51562 c 0.92578 0 1.7031 -0.32812 2.3281 -0.98438 c 0.63281 -0.66406 0.95312 -1.4922 0.95312 -2.4844 v -0.5625 z m 7.4688 -1.8438 v 8.7344 h -4.9219 v -2.2656 c -0.65625 0.92969 -1.3984 1.6055 -2.2188 2.0312 c -0.82422 0.41406 -1.8242 0.625 -3 0.625 c -1.5859 0 -2.8711 -0.45703 -3.8594 -1.375 c -0.99219 -0.92578 -1.4844 -2.1289 -1.4844 -3.6094 c 0 -1.7891 0.61328 -3.1016 1.8438 -3.9375 c 1.2383 -0.84375 3.1797 -1.2656 5.8281 -1.2656 h 2.8906 v -0.39062 c 0 -0.76953 -0.30859 -1.332 -0.92188 -1.6875 c -0.61719 -0.36328 -1.5703 -0.54688 -2.8594 -0.54688 c -1.0547 0 -2.0312 0.10547 -2.9375 0.3125 c -0.89844 0.21094 -1.7305 0.52344 -2.5 0.9375 v -3.7344 c 1.0391 -0.25 2.0859 -0.44141 3.1406 -0.57812 c 1.0625 -0.13281 2.125 -0.20312 3.1875 -0.20312 c 2.7578 0 4.75 0.54688 5.9688 1.6406 c 1.2266 1.0859 1.8438 2.8555 1.8438 5.3125 z" stroke-linecap="round"/>
</g>
		<g transform="matrix(1.3333 0 0 1.3333 -268.2606 378.8958)">
<path style="stroke: none; stroke-width: 1; stroke-dasharray: none; stroke-linecap: butt; stroke-dashoffset: 0; stroke-linejoin: miter; stroke-miterlimit: 4; is-custom-font: none; font-file-url: none; fill: #525252; fill-rule: nonzero; opacity: 1;" transform=" translate(-6.5625, 9.8278)" d="m 7.7031 -19.656 v 4.3438 h 5.0469 v 3.5 h -5.0469 v 6.5 c 0 0.71094 0.14062 1.1875 0.42188 1.4375 s 0.83594 0.375 1.6719 0.375 h 2.5156 v 3.5 h -4.1875 c -1.9375 0 -3.3125 -0.39844 -4.125 -1.2031 c -0.80469 -0.8125 -1.2031 -2.1797 -1.2031 -4.1094 v -6.5 h -2.4219 v -3.5 h 2.4219 v -4.3438 z" stroke-linecap="round"/>
</g>
		<g transform="matrix(1.3333 0 0 1.3333 -246.5988 381.8018)">
<path style="stroke: none; stroke-width: 1; stroke-dasharray: none; stroke-linecap: butt; stroke-dashoffset: 0; stroke-linejoin: miter; stroke-miterlimit: 4; is-custom-font: none; font-file-url: none; fill: #525252; fill-rule: nonzero; opacity: 1;" transform=" translate(-9.4222, 7.6485)" d="m 17.641 -7.7031 v 1.4062 h -11.453 c 0.125 1.1484 0.53906 2.0078 1.25 2.5781 c 0.70703 0.57422 1.7031 0.85938 2.9844 0.85938 c 1.0312 0 2.082 -0.14844 3.1562 -0.45312 c 1.082 -0.3125 2.1914 -0.77344 3.3281 -1.3906 v 3.7656 c -1.1562 0.4375 -2.3125 0.76562 -3.4688 0.98438 c -1.1562 0.22656 -2.3125 0.34375 -3.4688 0.34375 c -2.7734 0 -4.9297 -0.70312 -6.4688 -2.1094 c -1.5312 -1.4062 -2.2969 -3.3789 -2.2969 -5.9219 c 0 -2.5 0.75391 -4.4609 2.2656 -5.8906 c 1.5078 -1.4375 3.582 -2.1562 6.2188 -2.1562 c 2.4062 0 4.332 0.73047 5.7812 2.1875 c 1.4453 1.4492 2.1719 3.3828 2.1719 5.7969 z m -5.0312 -1.625 c 0 -0.92578 -0.27344 -1.6719 -0.8125 -2.2344 c -0.54297 -0.57031 -1.25 -0.85938 -2.125 -0.85938 c -0.94922 0 -1.7188 0.26562 -2.3125 0.79688 s -0.96484 1.2969 -1.1094 2.2969 z" stroke-linecap="round"/>
</g>
		<g transform="matrix(1.3333 0 0 1.3333 -221.2081 378.0725)">
<path style="stroke: none; stroke-width: 1; stroke-dasharray: none; stroke-linecap: butt; stroke-dashoffset: 0; stroke-linejoin: miter; stroke-miterlimit: 4; is-custom-font: none; font-file-url: none; fill: #525252; fill-rule: nonzero; opacity: 1;" transform=" translate(-9.4769, 10.4453)" d="m 12.766 -13.078 v -8.2031 h 4.9219 v 21.281 h -4.9219 v -2.2188 c -0.66797 0.90625 -1.4062 1.5703 -2.2188 1.9844 s -1.7578 0.625 -2.8281 0.625 c -1.8867 0 -3.4336 -0.75 -4.6406 -2.25 c -1.2109 -1.5 -1.8125 -3.4258 -1.8125 -5.7812 c 0 -2.3633 0.60156 -4.2969 1.8125 -5.7969 c 1.207 -1.5 2.7539 -2.25 4.6406 -2.25 c 1.0625 0 2 0.21484 2.8125 0.64062 c 0.82031 0.42969 1.5664 1.0859 2.2344 1.9688 z m -3.2188 9.9219 c 1.0391 0 1.8359 -0.37891 2.3906 -1.1406 c 0.55078 -0.76953 0.82812 -1.8828 0.82812 -3.3438 c 0 -1.457 -0.27734 -2.5664 -0.82812 -3.3281 c -0.55469 -0.76953 -1.3516 -1.1562 -2.3906 -1.1562 c -1.043 0 -1.8398 0.38672 -2.3906 1.1562 c -0.55469 0.76172 -0.82812 1.8711 -0.82812 3.3281 c 0 1.4609 0.27344 2.5742 0.82812 3.3438 c 0.55078 0.76172 1.3477 1.1406 2.3906 1.1406 z" stroke-linecap="round"/>
</g>
		<g transform="matrix(1.3333 0 0 1.3333 -180.0264 378.0726)">
<path style="stroke: none; stroke-width: 1; stroke-dasharray: none; stroke-linecap: butt; stroke-dashoffset: 0; stroke-linejoin: miter; stroke-miterlimit: 4; is-custom-font: none; font-file-url: none; fill: #525252; fill-rule: nonzero; opacity: 1;" transform=" translate(-10.5703, 10.4452)" d="m 10.5 -3.1562 c 1.0508 0 1.8516 -0.37891 2.4062 -1.1406 c 0.55078 -0.76953 0.82812 -1.8828 0.82812 -3.3438 c 0 -1.457 -0.27734 -2.5664 -0.82812 -3.3281 c -0.55469 -0.76953 -1.3555 -1.1562 -2.4062 -1.1562 c -1.0547 0 -1.8594 0.38672 -2.4219 1.1562 c -0.55469 0.77344 -0.82812 1.8828 -0.82812 3.3281 c 0 1.4492 0.27344 2.5586 0.82812 3.3281 c 0.5625 0.77344 1.3672 1.1562 2.4219 1.1562 z m -3.25 -9.9219 c 0.67578 -0.88281 1.4219 -1.5391 2.2344 -1.9688 c 0.82031 -0.42578 1.7656 -0.64062 2.8281 -0.64062 c 1.8945 0 3.4453 0.75 4.6562 2.25 c 1.207 1.5 1.8125 3.4336 1.8125 5.7969 c 0 2.3555 -0.60547 4.2812 -1.8125 5.7812 c -1.2109 1.5 -2.7617 2.25 -4.6562 2.25 c -1.0625 0 -2.0078 -0.21094 -2.8281 -0.625 c -0.8125 -0.42578 -1.5586 -1.0859 -2.2344 -1.9844 v 2.2188 h -4.8906 v -21.281 h 4.8906 z" stroke-linecap="round"/>
</g>
		<g transform="matrix(1.3333 0 0 1.3333 -155.3337 385.8234)">
<path style="stroke: none; stroke-width: 1; stroke-dasharray: none; stroke-linecap: butt; stroke-dashoffset: 0; stroke-linejoin: miter; stroke-miterlimit: 4; is-custom-font: none; font-file-url: none; fill: #525252; fill-rule: nonzero; opacity: 1;" transform=" translate(-9.0468, 4.6322)" d="m 0.34375 -15.312 h 4.8906 l 4.125 10.391 l 3.5 -10.391 h 4.8906 l -6.4375 16.766 c -0.64844 1.6953 -1.4023 2.8828 -2.2656 3.5625 c -0.86719 0.6875 -2 1.0312 -3.4062 1.0312 h -2.8438 v -3.2188 h 1.5312 c 0.83203 0 1.4375 -0.13672 1.8125 -0.40625 c 0.38281 -0.26172 0.67969 -0.73047 0.89062 -1.4062 l 0.14062 -0.42188 z" stroke-linecap="round"/>
</g>
		<g transform="matrix(1.3333 0 0 1.3333 -123.6563 377.8124)">
<path style="stroke: none; stroke-width: 1; stroke-dasharray: none; stroke-linecap: butt; stroke-dashoffset: 0; stroke-linejoin: miter; stroke-miterlimit: 4; is-custom-font: none; font-file-url: none; fill: #525252; fill-rule: nonzero; opacity: 1;" transform=" translate(-4.8047, 10.6404)" d="m 2.3594 -15.312 h 4.8906 v 15.312 h -4.8906 z m 0 -5.9688 h 4.8906 v 4 h -4.8906 z" stroke-linecap="round"/>
</g>
		<g transform="matrix(1.3333 0 0 1.3333 -106.6562 381.8022)">
<path style="stroke: none; stroke-width: 1; stroke-dasharray: none; stroke-linecap: butt; stroke-dashoffset: 0; stroke-linejoin: miter; stroke-miterlimit: 4; is-custom-font: none; font-file-url: none; fill: #525252; fill-rule: nonzero; opacity: 1;" transform=" translate(-7.9612, 7.6481)" d="m 14.719 -14.828 v 3.9844 c -0.65625 -0.45703 -1.3242 -0.79688 -2 -1.0156 c -0.66797 -0.21875 -1.3594 -0.32812 -2.0781 -0.32812 c -1.3672 0 -2.4336 0.40234 -3.2031 1.2031 c -0.76172 0.79297 -1.1406 1.9062 -1.1406 3.3438 c 0 1.4297 0.37891 2.543 1.1406 3.3438 c 0.76953 0.79297 1.8359 1.1875 3.2031 1.1875 c 0.75781 0 1.4844 -0.10938 2.1719 -0.32812 c 0.6875 -0.22656 1.3203 -0.56641 1.9062 -1.0156 v 4 c -0.76172 0.28125 -1.5391 0.48828 -2.3281 0.625 c -0.78125 0.14453 -1.5742 0.21875 -2.375 0.21875 c -2.7617 0 -4.9219 -0.70703 -6.4844 -2.125 c -1.5547 -1.4141 -2.3281 -3.3828 -2.3281 -5.9062 c 0 -2.5312 0.77344 -4.5039 2.3281 -5.9219 c 1.5625 -1.4141 3.7227 -2.125 6.4844 -2.125 c 0.80078 0 1.5938 0.074219 2.375 0.21875 c 0.78125 0.13672 1.5547 0.35156 2.3281 0.64062 z" stroke-linecap="round"/>
</g>
		<g transform="matrix(1.3333 0 0 1.3333 -82.3127 381.801)">
<path style="stroke: none; stroke-width: 1; stroke-dasharray: none; stroke-linecap: butt; stroke-dashoffset: 0; stroke-linejoin: miter; stroke-miterlimit: 4; is-custom-font: none; font-file-url: none; fill: #525252; fill-rule: nonzero; opacity: 1;" transform=" translate(-9.6172, 7.649)" d="m 9.6406 -12.188 c -1.0859 0 -1.9141 0.39062 -2.4844 1.1719 c -0.57422 0.78125 -0.85938 1.9062 -0.85938 3.375 s 0.28516 2.5938 0.85938 3.375 c 0.57031 0.77344 1.3984 1.1562 2.4844 1.1562 c 1.0625 0 1.875 -0.38281 2.4375 -1.1562 c 0.57031 -0.78125 0.85938 -1.9062 0.85938 -3.375 s -0.28906 -2.5938 -0.85938 -3.375 c -0.5625 -0.78125 -1.375 -1.1719 -2.4375 -1.1719 z m 0 -3.5 c 2.6328 0 4.6914 0.71484 6.1719 2.1406 c 1.4766 1.418 2.2188 3.3867 2.2188 5.9062 c 0 2.5117 -0.74219 4.4805 -2.2188 5.9062 c -1.4805 1.418 -3.5391 2.125 -6.1719 2.125 c -2.6484 0 -4.7148 -0.70703 -6.2031 -2.125 c -1.4922 -1.4258 -2.2344 -3.3945 -2.2344 -5.9062 c 0 -2.5195 0.74219 -4.4883 2.2344 -5.9062 c 1.4883 -1.4258 3.5547 -2.1406 6.2031 -2.1406 z" stroke-linecap="round"/>
</g>
		<g transform="matrix(1.3333 0 0 1.3333 -56.0836 381.5417)">
<path style="stroke: none; stroke-width: 1; stroke-dasharray: none; stroke-linecap: butt; stroke-dashoffset: 0; stroke-linejoin: miter; stroke-miterlimit: 4; is-custom-font: none; font-file-url: none; fill: #525252; fill-rule: nonzero; opacity: 1;" transform=" translate(-10.0547, 7.8436)" d="m 17.75 -9.3281 v 9.3281 h -4.9219 v -7.1406 c 0 -1.3203 -0.03125 -2.2344 -0.09375 -2.7344 s -0.16797 -0.86719 -0.3125 -1.1094 c -0.1875 -0.3125 -0.44922 -0.55469 -0.78125 -0.73438 c -0.32422 -0.17578 -0.69531 -0.26562 -1.1094 -0.26562 c -1.0234 0 -1.8242 0.39844 -2.4062 1.1875 c -0.58594 0.78125 -0.875 1.8711 -0.875 3.2656 v 7.5312 h -4.8906 v -15.312 h 4.8906 v 2.2344 c 0.73828 -0.88281 1.5195 -1.5391 2.3438 -1.9688 c 0.83203 -0.42578 1.75 -0.64062 2.75 -0.64062 c 1.7695 0 3.1133 0.54688 4.0312 1.6406 c 0.91406 1.0859 1.375 2.6562 1.375 4.7188 z" stroke-linecap="round"/>
</g>
		<g transform="matrix(1.3333 0 0 1.3333 -30.3488 381.8018)">
<path style="stroke: none; stroke-width: 1; stroke-dasharray: none; stroke-linecap: butt; stroke-dashoffset: 0; stroke-linejoin: miter; stroke-miterlimit: 4; is-custom-font: none; font-file-url: none; fill: #525252; fill-rule: nonzero; opacity: 1;" transform=" translate(-9.4222, 7.6485)" d="m 17.641 -7.7031 v 1.4062 h -11.453 c 0.125 1.1484 0.53906 2.0078 1.25 2.5781 c 0.70703 0.57422 1.7031 0.85938 2.9844 0.85938 c 1.0312 0 2.082 -0.14844 3.1562 -0.45312 c 1.082 -0.3125 2.1914 -0.77344 3.3281 -1.3906 v 3.7656 c -1.1562 0.4375 -2.3125 0.76562 -3.4688 0.98438 c -1.1562 0.22656 -2.3125 0.34375 -3.4688 0.34375 c -2.7734 0 -4.9297 -0.70312 -6.4688 -2.1094 c -1.5312 -1.4062 -2.2969 -3.3789 -2.2969 -5.9219 c 0 -2.5 0.75391 -4.4609 2.2656 -5.8906 c 1.5078 -1.4375 3.582 -2.1562 6.2188 -2.1562 c 2.4062 0 4.332 0.73047 5.7812 2.1875 c 1.4453 1.4492 2.1719 3.3828 2.1719 5.7969 z m -5.0312 -1.625 c 0 -0.92578 -0.27344 -1.6719 -0.8125 -2.2344 c -0.54297 -0.57031 -1.25 -0.85938 -2.125 -0.85938 c -0.94922 0 -1.7188 0.26562 -2.3125 0.79688 s -0.96484 1.2969 -1.1094 2.2969 z" stroke-linecap="round"/>
</g>
		<g transform="matrix(1.3333 0 0 1.3333 -6.3966 381.802)">
<path style="stroke: none; stroke-width: 1; stroke-dasharray: none; stroke-linecap: butt; stroke-dashoffset: 0; stroke-linejoin: miter; stroke-miterlimit: 4; is-custom-font: none; font-file-url: none; fill: #525252; fill-rule: nonzero; opacity: 1;" transform=" translate(-8.3981, 7.6483)" d="m 14.312 -14.828 v 3.7188 c -1.043 -0.4375 -2.0547 -0.76562 -3.0312 -0.98438 c -0.98047 -0.21875 -1.9023 -0.32812 -2.7656 -0.32812 c -0.92969 0 -1.6211 0.11719 -2.0781 0.34375 c -0.44922 0.23047 -0.67188 0.58984 -0.67188 1.0781 c 0 0.38672 0.17188 0.68359 0.51562 0.89062 c 0.34375 0.21094 0.95703 0.36719 1.8438 0.46875 l 0.85938 0.125 c 2.5078 0.32422 4.1953 0.85156 5.0625 1.5781 c 0.86328 0.73047 1.2969 1.8711 1.2969 3.4219 c 0 1.6367 -0.60547 2.8672 -1.8125 3.6875 c -1.1992 0.8125 -2.9922 1.2188 -5.375 1.2188 c -1.0234 0 -2.0742 -0.078125 -3.1562 -0.23438 c -1.0742 -0.15625 -2.1797 -0.39453 -3.3125 -0.71875 v -3.7188 c 0.96875 0.48047 1.9609 0.83984 2.9844 1.0781 c 1.0312 0.23047 2.0781 0.34375 3.1406 0.34375 c 0.95703 0 1.6758 -0.12891 2.1562 -0.39062 c 0.47656 -0.26953 0.71875 -0.66406 0.71875 -1.1875 c 0 -0.4375 -0.16797 -0.75781 -0.5 -0.96875 c -0.33594 -0.21875 -0.99609 -0.38281 -1.9844 -0.5 l -0.85938 -0.10938 c -2.1797 -0.26953 -3.7031 -0.77344 -4.5781 -1.5156 c -0.875 -0.73828 -1.3125 -1.8594 -1.3125 -3.3594 c 0 -1.625 0.55078 -2.8281 1.6562 -3.6094 c 1.1133 -0.78906 2.8203 -1.1875 5.125 -1.1875 c 0.89453 0 1.8359 0.074219 2.8281 0.21875 c 1 0.13672 2.082 0.35156 3.25 0.64062 z" stroke-linecap="round"/>
</g>
		<g transform="matrix(1.3333 0 0 1.3333 11.0364 377.8124)">
<path style="stroke: none; stroke-width: 1; stroke-dasharray: none; stroke-linecap: butt; stroke-dashoffset: 0; stroke-linejoin: miter; stroke-miterlimit: 4; is-custom-font: none; font-file-url: none; fill: #525252; fill-rule: nonzero; opacity: 1;" transform=" translate(-4.8047, 10.6404)" d="m 2.3594 -15.312 h 4.8906 v 15.312 h -4.8906 z m 0 -5.9688 h 4.8906 v 4 h -4.8906 z" stroke-linecap="round"/>
</g>
		<g transform="matrix(1.3333 0 0 1.3333 29.3539 381.8017)">
<path style="stroke: none; stroke-width: 1; stroke-dasharray: none; stroke-linecap: butt; stroke-dashoffset: 0; stroke-linejoin: miter; stroke-miterlimit: 4; is-custom-font: none; font-file-url: none; fill: #525252; fill-rule: nonzero; opacity: 1;" transform=" translate(-8.9453, 7.6485)" d="m 9.2188 -6.8906 c -1.0234 0 -1.793 0.17188 -2.3125 0.51562 c -0.51172 0.34375 -0.76562 0.85547 -0.76562 1.5312 c 0 0.625 0.20703 1.1172 0.625 1.4688 c 0.41406 0.34375 0.98828 0.51562 1.7188 0.51562 c 0.92578 0 1.7031 -0.32812 2.3281 -0.98438 c 0.63281 -0.66406 0.95312 -1.4922 0.95312 -2.4844 v -0.5625 z m 7.4688 -1.8438 v 8.7344 h -4.9219 v -2.2656 c -0.65625 0.92969 -1.3984 1.6055 -2.2188 2.0312 c -0.82422 0.41406 -1.8242 0.625 -3 0.625 c -1.5859 0 -2.8711 -0.45703 -3.8594 -1.375 c -0.99219 -0.92578 -1.4844 -2.1289 -1.4844 -3.6094 c 0 -1.7891 0.61328 -3.1016 1.8438 -3.9375 c 1.2383 -0.84375 3.1797 -1.2656 5.8281 -1.2656 h 2.8906 v -0.39062 c 0 -0.76953 -0.30859 -1.332 -0.92188 -1.6875 c -0.61719 -0.36328 -1.5703 -0.54688 -2.8594 -0.54688 c -1.0547 0 -2.0312 0.10547 -2.9375 0.3125 c -0.89844 0.21094 -1.7305 0.52344 -2.5 0.9375 v -3.7344 c 1.0391 -0.25 2.0859 -0.44141 3.1406 -0.57812 c 1.0625 -0.13281 2.125 -0.20312 3.1875 -0.20312 c 2.7578 0 4.75 0.54688 5.9688 1.6406 c 1.2266 1.0859 1.8438 2.8555 1.8438 5.3125 z" stroke-linecap="round"/>
</g>
		<g transform="matrix(1.3333 0 0 1.3333 -364.6979 415.1455)">
<path style="stroke: none; stroke-width: 1; stroke-dasharray: none; stroke-linecap: butt; stroke-dashoffset: 0; stroke-linejoin: miter; stroke-miterlimit: 4; is-custom-font: none; font-file-url: none; fill: #525252; fill-rule: nonzero; opacity: 1;" transform=" translate(-6.4767, 10.6406)" d="m 12.422 -21.281 v 3.2188 h -2.7031 c -0.6875 0 -1.1719 0.125 -1.4531 0.375 c -0.27344 0.25 -0.40625 0.6875 -0.40625 1.3125 v 1.0625 h 4.1875 v 3.5 h -4.1875 v 11.812 h -4.8906 v -11.812 h -2.4375 v -3.5 h 2.4375 v -1.0625 c 0 -1.6641 0.46094 -2.8984 1.3906 -3.7031 c 0.92578 -0.80078 2.3672 -1.2031 4.3281 -1.2031 z" stroke-linecap="round"/>
</g>
		<g transform="matrix(1.3333 0 0 1.3333 -346.36 418.8746)">
<path style="stroke: none; stroke-width: 1; stroke-dasharray: none; stroke-linecap: butt; stroke-dashoffset: 0; stroke-linejoin: miter; stroke-miterlimit: 4; is-custom-font: none; font-file-url: none; fill: #525252; fill-rule: nonzero; opacity: 1;" transform=" translate(-8.0465, 7.8439)" d="m 13.734 -11.141 c -0.4375 -0.19531 -0.87109 -0.34375 -1.2969 -0.4375 c -0.41797 -0.10156 -0.83984 -0.15625 -1.2656 -0.15625 c -1.2617 0 -2.2305 0.40625 -2.9062 1.2188 c -0.67969 0.80469 -1.0156 1.9531 -1.0156 3.4531 v 7.0625 h -4.8906 v -15.312 h 4.8906 v 2.5156 c 0.625 -1 1.3438 -1.7266 2.1562 -2.1875 c 0.82031 -0.46875 1.8008 -0.70312 2.9375 -0.70312 c 0.16406 0 0.34375 0.011719 0.53125 0.03125 c 0.19531 0.011719 0.47656 0.039062 0.84375 0.078125 z" stroke-linecap="round"/>
</g>
		<g transform="matrix(1.3333 0 0 1.3333 -325.8544 419.1343)">
<path style="stroke: none; stroke-width: 1; stroke-dasharray: none; stroke-linecap: butt; stroke-dashoffset: 0; stroke-linejoin: miter; stroke-miterlimit: 4; is-custom-font: none; font-file-url: none; fill: #525252; fill-rule: nonzero; opacity: 1;" transform=" translate(-9.6172, 7.649)" d="m 9.6406 -12.188 c -1.0859 0 -1.9141 0.39062 -2.4844 1.1719 c -0.57422 0.78125 -0.85938 1.9062 -0.85938 3.375 s 0.28516 2.5938 0.85938 3.375 c 0.57031 0.77344 1.3984 1.1562 2.4844 1.1562 c 1.0625 0 1.875 -0.38281 2.4375 -1.1562 c 0.57031 -0.78125 0.85938 -1.9062 0.85938 -3.375 s -0.28906 -2.5938 -0.85938 -3.375 c -0.5625 -0.78125 -1.375 -1.1719 -2.4375 -1.1719 z m 0 -3.5 c 2.6328 0 4.6914 0.71484 6.1719 2.1406 c 1.4766 1.418 2.2188 3.3867 2.2188 5.9062 c 0 2.5117 -0.74219 4.4805 -2.2188 5.9062 c -1.4805 1.418 -3.5391 2.125 -6.1719 2.125 c -2.6484 0 -4.7148 -0.70703 -6.2031 -2.125 c -1.4922 -1.4258 -2.2344 -3.3945 -2.2344 -5.9062 c 0 -2.5195 0.74219 -4.4883 2.2344 -5.9062 c 1.4883 -1.4258 3.5547 -2.1406 6.2031 -2.1406 z" stroke-linecap="round"/>
</g>
		<g transform="matrix(1.3333 0 0 1.3333 -293.5004 418.8742)">
<path style="stroke: none; stroke-width: 1; stroke-dasharray: none; stroke-linecap: butt; stroke-dashoffset: 0; stroke-linejoin: miter; stroke-miterlimit: 4; is-custom-font: none; font-file-url: none; fill: #525252; fill-rule: nonzero; opacity: 1;" transform=" translate(-14.6485, 7.8441)" d="m 16.547 -12.766 c 0.61328 -0.94531 1.3477 -1.6719 2.2031 -2.1719 c 0.85156 -0.5 1.7891 -0.75 2.8125 -0.75 c 1.7578 0 3.0977 0.54688 4.0156 1.6406 c 0.92578 1.0859 1.3906 2.6562 1.3906 4.7188 v 9.3281 h -4.9219 v -7.9844 v -0.35938 c 0.007813 -0.13281 0.015625 -0.32031 0.015625 -0.5625 c 0 -1.082 -0.16406 -1.8633 -0.48438 -2.3438 c -0.3125 -0.48828 -0.82422 -0.73438 -1.5312 -0.73438 c -0.92969 0 -1.6484 0.38672 -2.1562 1.1562 c -0.51172 0.76172 -0.77344 1.8672 -0.78125 3.3125 v 7.5156 h -4.9219 v -7.9844 c 0 -1.6953 -0.14844 -2.7852 -0.4375 -3.2656 c -0.29297 -0.48828 -0.8125 -0.73438 -1.5625 -0.73438 c -0.9375 0 -1.6641 0.38672 -2.1719 1.1562 c -0.51172 0.76172 -0.76562 1.8594 -0.76562 3.2969 v 7.5312 h -4.9219 v -15.312 h 4.9219 v 2.2344 c 0.60156 -0.86328 1.2891 -1.5156 2.0625 -1.9531 c 0.78125 -0.4375 1.6406 -0.65625 2.5781 -0.65625 c 1.0625 0 2 0.25781 2.8125 0.76562 c 0.8125 0.51172 1.4258 1.2305 1.8438 2.1562 z" stroke-linecap="round"/>
</g>
		<g transform="matrix(1.3333 0 0 1.3333 -252.3804 416.2292)">
<path style="stroke: none; stroke-width: 1; stroke-dasharray: none; stroke-linecap: butt; stroke-dashoffset: 0; stroke-linejoin: miter; stroke-miterlimit: 4; is-custom-font: none; font-file-url: none; fill: #525252; fill-rule: nonzero; opacity: 1;" transform=" translate(-6.5625, 9.8278)" d="m 7.7031 -19.656 v 4.3438 h 5.0469 v 3.5 h -5.0469 v 6.5 c 0 0.71094 0.14062 1.1875 0.42188 1.4375 s 0.83594 0.375 1.6719 0.375 h 2.5156 v 3.5 h -4.1875 c -1.9375 0 -3.3125 -0.39844 -4.125 -1.2031 c -0.80469 -0.8125 -1.2031 -2.1797 -1.2031 -4.1094 v -6.5 h -2.4219 v -3.5 h 2.4219 v -4.3438 z" stroke-linecap="round"/>
</g>
		<g transform="matrix(1.3333 0 0 1.3333 -229.8805 415.1456)">
<path style="stroke: none; stroke-width: 1; stroke-dasharray: none; stroke-linecap: butt; stroke-dashoffset: 0; stroke-linejoin: miter; stroke-miterlimit: 4; is-custom-font: none; font-file-url: none; fill: #525252; fill-rule: nonzero; opacity: 1;" transform=" translate(-10.0547, 10.6405)" d="m 17.75 -9.3281 v 9.3281 h -4.9219 v -7.1094 c 0 -1.3438 -0.03125 -2.2656 -0.09375 -2.7656 s -0.16797 -0.86719 -0.3125 -1.1094 c -0.1875 -0.3125 -0.44922 -0.55469 -0.78125 -0.73438 c -0.32422 -0.17578 -0.69531 -0.26562 -1.1094 -0.26562 c -1.0234 0 -1.8242 0.39844 -2.4062 1.1875 c -0.58594 0.78125 -0.875 1.8711 -0.875 3.2656 v 7.5312 h -4.8906 v -21.281 h 4.8906 v 8.2031 c 0.73828 -0.88281 1.5195 -1.5391 2.3438 -1.9688 c 0.83203 -0.42578 1.75 -0.64062 2.75 -0.64062 c 1.7695 0 3.1133 0.54688 4.0312 1.6406 c 0.91406 1.0859 1.375 2.6562 1.375 4.7188 z" stroke-linecap="round"/>
</g>
		<g transform="matrix(1.3333 0 0 1.3333 -204.1457 419.1351)">
<path style="stroke: none; stroke-width: 1; stroke-dasharray: none; stroke-linecap: butt; stroke-dashoffset: 0; stroke-linejoin: miter; stroke-miterlimit: 4; is-custom-font: none; font-file-url: none; fill: #525252; fill-rule: nonzero; opacity: 1;" transform=" translate(-9.4222, 7.6485)" d="m 17.641 -7.7031 v 1.4062 h -11.453 c 0.125 1.1484 0.53906 2.0078 1.25 2.5781 c 0.70703 0.57422 1.7031 0.85938 2.9844 0.85938 c 1.0312 0 2.082 -0.14844 3.1562 -0.45312 c 1.082 -0.3125 2.1914 -0.77344 3.3281 -1.3906 v 3.7656 c -1.1562 0.4375 -2.3125 0.76562 -3.4688 0.98438 c -1.1562 0.22656 -2.3125 0.34375 -3.4688 0.34375 c -2.7734 0 -4.9297 -0.70312 -6.4688 -2.1094 c -1.5312 -1.4062 -2.2969 -3.3789 -2.2969 -5.9219 c 0 -2.5 0.75391 -4.4609 2.2656 -5.8906 c 1.5078 -1.4375 3.582 -2.1562 6.2188 -2.1562 c 2.4062 0 4.332 0.73047 5.7812 2.1875 c 1.4453 1.4492 2.1719 3.3828 2.1719 5.7969 z m -5.0312 -1.625 c 0 -0.92578 -0.27344 -1.6719 -0.8125 -2.2344 c -0.54297 -0.57031 -1.25 -0.85938 -2.125 -0.85938 c -0.94922 0 -1.7188 0.26562 -2.3125 0.79688 s -0.96484 1.2969 -1.1094 2.2969 z" stroke-linecap="round"/>
</g>
		<g transform="matrix(1.3333 0 0 1.3333 -162.7659 415.729)">
<path style="stroke: none; stroke-width: 1; stroke-dasharray: none; stroke-linecap: butt; stroke-dashoffset: 0; stroke-linejoin: miter; stroke-miterlimit: 4; is-custom-font: none; font-file-url: none; fill: #525252; fill-rule: nonzero; opacity: 1;" transform=" translate(-11.7188, 10.203)" d="m 2.5781 -20.406 h 5.875 l 7.4219 14 v -14 h 4.9844 v 20.406 h -5.875 l -7.4219 -14 v 14 h -4.9844 z" stroke-linecap="round"/>
</g>
		<g transform="matrix(1.3333 0 0 1.3333 -134.3232 419.1343)">
<path style="stroke: none; stroke-width: 1; stroke-dasharray: none; stroke-linecap: butt; stroke-dashoffset: 0; stroke-linejoin: miter; stroke-miterlimit: 4; is-custom-font: none; font-file-url: none; fill: #525252; fill-rule: nonzero; opacity: 1;" transform=" translate(-9.6172, 7.649)" d="m 9.6406 -12.188 c -1.0859 0 -1.9141 0.39062 -2.4844 1.1719 c -0.57422 0.78125 -0.85938 1.9062 -0.85938 3.375 s 0.28516 2.5938 0.85938 3.375 c 0.57031 0.77344 1.3984 1.1562 2.4844 1.1562 c 1.0625 0 1.875 -0.38281 2.4375 -1.1562 c 0.57031 -0.78125 0.85938 -1.9062 0.85938 -3.375 s -0.28906 -2.5938 -0.85938 -3.375 c -0.5625 -0.78125 -1.375 -1.1719 -2.4375 -1.1719 z m 0 -3.5 c 2.6328 0 4.6914 0.71484 6.1719 2.1406 c 1.4766 1.418 2.2188 3.3867 2.2188 5.9062 c 0 2.5117 -0.74219 4.4805 -2.2188 5.9062 c -1.4805 1.418 -3.5391 2.125 -6.1719 2.125 c -2.6484 0 -4.7148 -0.70703 -6.2031 -2.125 c -1.4922 -1.4258 -2.2344 -3.3945 -2.2344 -5.9062 c 0 -2.5195 0.74219 -4.4883 2.2344 -5.9062 c 1.4883 -1.4258 3.5547 -2.1406 6.2031 -2.1406 z" stroke-linecap="round"/>
</g>
		<g transform="matrix(1.3333 0 0 1.3333 -108.318 419.3847)">
<path style="stroke: none; stroke-width: 1; stroke-dasharray: none; stroke-linecap: butt; stroke-dashoffset: 0; stroke-linejoin: miter; stroke-miterlimit: 4; is-custom-font: none; font-file-url: none; fill: #525252; fill-rule: nonzero; opacity: 1;" transform=" translate(-9.8828, 7.4613)" d="m 2.1875 -5.9688 v -9.3438 h 4.9219 v 1.5312 c 0 0.83594 -0.007813 1.875 -0.015625 3.125 c -0.011719 1.25 -0.015625 2.0859 -0.015625 2.5 c 0 1.2422 0.03125 2.1328 0.09375 2.6719 c 0.070313 0.54297 0.17969 0.93359 0.32812 1.1719 c 0.20703 0.32422 0.47266 0.57422 0.79688 0.75 c 0.32031 0.16797 0.69141 0.25 1.1094 0.25 c 1.0195 0 1.8203 -0.39062 2.4062 -1.1719 c 0.58203 -0.78125 0.875 -1.8672 0.875 -3.2656 v -7.5625 h 4.8906 v 15.312 h -4.8906 v -2.2188 c -0.74219 0.89844 -1.5234 1.5586 -2.3438 1.9844 c -0.82422 0.41406 -1.7344 0.625 -2.7344 0.625 c -1.7617 0 -3.1055 -0.53906 -4.0312 -1.625 c -0.92969 -1.082 -1.3906 -2.6602 -1.3906 -4.7344 z" stroke-linecap="round"/>
</g>
		<g transform="matrix(1.3333 0 0 1.3333 -81.5107 418.875)">
<path style="stroke: none; stroke-width: 1; stroke-dasharray: none; stroke-linecap: butt; stroke-dashoffset: 0; stroke-linejoin: miter; stroke-miterlimit: 4; is-custom-font: none; font-file-url: none; fill: #525252; fill-rule: nonzero; opacity: 1;" transform=" translate(-10.0547, 7.8436)" d="m 17.75 -9.3281 v 9.3281 h -4.9219 v -7.1406 c 0 -1.3203 -0.03125 -2.2344 -0.09375 -2.7344 s -0.16797 -0.86719 -0.3125 -1.1094 c -0.1875 -0.3125 -0.44922 -0.55469 -0.78125 -0.73438 c -0.32422 -0.17578 -0.69531 -0.26562 -1.1094 -0.26562 c -1.0234 0 -1.8242 0.39844 -2.4062 1.1875 c -0.58594 0.78125 -0.875 1.8711 -0.875 3.2656 v 7.5312 h -4.8906 v -15.312 h 4.8906 v 2.2344 c 0.73828 -0.88281 1.5195 -1.5391 2.3438 -1.9688 c 0.83203 -0.42578 1.75 -0.64062 2.75 -0.64062 c 1.7695 0 3.1133 0.54688 4.0312 1.6406 c 0.91406 1.0859 1.375 2.6562 1.375 4.7188 z" stroke-linecap="round"/>
</g>
		<g transform="matrix(1.3333 0 0 1.3333 -40.7085 415.7292)">
<path style="stroke: none; stroke-width: 1; stroke-dasharray: none; stroke-linecap: butt; stroke-dashoffset: 0; stroke-linejoin: miter; stroke-miterlimit: 4; is-custom-font: none; font-file-url: none; fill: #525252; fill-rule: nonzero; opacity: 1;" transform=" translate(-10.9766, 10.2028)" d="m 2.5781 -20.406 h 8.7344 c 2.5938 0 4.582 0.57812 5.9688 1.7344 c 1.3945 1.1484 2.0938 2.7891 2.0938 4.9219 c 0 2.1367 -0.69922 3.7812 -2.0938 4.9375 c -1.3867 1.1562 -3.375 1.7344 -5.9688 1.7344 h -3.4844 v 7.0781 h -5.25 z m 5.25 3.8125 v 5.7031 h 2.9219 c 1.0195 0 1.8047 -0.25 2.3594 -0.75 c 0.5625 -0.5 0.84375 -1.2031 0.84375 -2.1094 c 0 -0.91406 -0.28125 -1.6172 -0.84375 -2.1094 c -0.55469 -0.48828 -1.3398 -0.73438 -2.3594 -0.73438 z" stroke-linecap="round"/>
</g>
		<g transform="matrix(1.3333 0 0 1.3333 -17.2507 418.8746)">
<path style="stroke: none; stroke-width: 1; stroke-dasharray: none; stroke-linecap: butt; stroke-dashoffset: 0; stroke-linejoin: miter; stroke-miterlimit: 4; is-custom-font: none; font-file-url: none; fill: #525252; fill-rule: nonzero; opacity: 1;" transform=" translate(-8.0465, 7.8439)" d="m 13.734 -11.141 c -0.4375 -0.19531 -0.87109 -0.34375 -1.2969 -0.4375 c -0.41797 -0.10156 -0.83984 -0.15625 -1.2656 -0.15625 c -1.2617 0 -2.2305 0.40625 -2.9062 1.2188 c -0.67969 0.80469 -1.0156 1.9531 -1.0156 3.4531 v 7.0625 h -4.8906 v -15.312 h 4.8906 v 2.5156 c 0.625 -1 1.3438 -1.7266 2.1562 -2.1875 c 0.82031 -0.46875 1.8008 -0.70312 2.9375 -0.70312 c 0.16406 0 0.34375 0.011719 0.53125 0.03125 c 0.19531 0.011719 0.47656 0.039062 0.84375 0.078125 z" stroke-linecap="round"/>
</g>
		<g transform="matrix(1.3333 0 0 1.3333 3.2497 419.1343)">
<path style="stroke: none; stroke-width: 1; stroke-dasharray: none; stroke-linecap: butt; stroke-dashoffset: 0; stroke-linejoin: miter; stroke-miterlimit: 4; is-custom-font: none; font-file-url: none; fill: #525252; fill-rule: nonzero; opacity: 1;" transform=" translate(-9.6172, 7.649)" d="m 9.6406 -12.188 c -1.0859 0 -1.9141 0.39062 -2.4844 1.1719 c -0.57422 0.78125 -0.85938 1.9062 -0.85938 3.375 s 0.28516 2.5938 0.85938 3.375 c 0.57031 0.77344 1.3984 1.1562 2.4844 1.1562 c 1.0625 0 1.875 -0.38281 2.4375 -1.1562 c 0.57031 -0.78125 0.85938 -1.9062 0.85938 -3.375 s -0.28906 -2.5938 -0.85938 -3.375 c -0.5625 -0.78125 -1.375 -1.1719 -2.4375 -1.1719 z m 0 -3.5 c 2.6328 0 4.6914 0.71484 6.1719 2.1406 c 1.4766 1.418 2.2188 3.3867 2.2188 5.9062 c 0 2.5117 -0.74219 4.4805 -2.2188 5.9062 c -1.4805 1.418 -3.5391 2.125 -6.1719 2.125 c -2.6484 0 -4.7148 -0.70703 -6.2031 -2.125 c -1.4922 -1.4258 -2.2344 -3.3945 -2.2344 -5.9062 c 0 -2.5195 0.74219 -4.4883 2.2344 -5.9062 c 1.4883 -1.4258 3.5547 -2.1406 6.2031 -2.1406 z" stroke-linecap="round"/>
</g>
		<g transform="matrix(1.3333 0 0 1.3333 20.2863 419.1771)">
<path style="stroke: none; stroke-width: 1; stroke-dasharray: none; stroke-linecap: butt; stroke-dashoffset: 0; stroke-linejoin: miter; stroke-miterlimit: 4; is-custom-font: none; font-file-url: none; fill: #525252; fill-rule: nonzero; opacity: 1;" transform=" translate(-3.1563, 7.6168)" d="m 2.3594 -15.312 h 4.8906 v 15.031 c 0 2.0508 -0.49609 3.6172 -1.4844 4.7031 c -0.98047 1.082 -2.4062 1.625 -4.2812 1.625 h -2.4219 v -3.2188 h 0.85938 c 0.92578 0 1.5625 -0.21094 1.9062 -0.625 c 0.35156 -0.41797 0.53125 -1.2461 0.53125 -2.4844 z m 0 -5.9688 h 4.8906 v 4 h -4.8906 z" stroke-linecap="round"/>
</g>
		<g transform="matrix(1.3333 0 0 1.3333 41.4377 419.1351)">
<path style="stroke: none; stroke-width: 1; stroke-dasharray: none; stroke-linecap: butt; stroke-dashoffset: 0; stroke-linejoin: miter; stroke-miterlimit: 4; is-custom-font: none; font-file-url: none; fill: #525252; fill-rule: nonzero; opacity: 1;" transform=" translate(-9.4222, 7.6485)" d="m 17.641 -7.7031 v 1.4062 h -11.453 c 0.125 1.1484 0.53906 2.0078 1.25 2.5781 c 0.70703 0.57422 1.7031 0.85938 2.9844 0.85938 c 1.0312 0 2.082 -0.14844 3.1562 -0.45312 c 1.082 -0.3125 2.1914 -0.77344 3.3281 -1.3906 v 3.7656 c -1.1562 0.4375 -2.3125 0.76562 -3.4688 0.98438 c -1.1562 0.22656 -2.3125 0.34375 -3.4688 0.34375 c -2.7734 0 -4.9297 -0.70312 -6.4688 -2.1094 c -1.5312 -1.4062 -2.2969 -3.3789 -2.2969 -5.9219 c 0 -2.5 0.75391 -4.4609 2.2656 -5.8906 c 1.5078 -1.4375 3.582 -2.1562 6.2188 -2.1562 c 2.4062 0 4.332 0.73047 5.7812 2.1875 c 1.4453 1.4492 2.1719 3.3828 2.1719 5.7969 z m -5.0312 -1.625 c 0 -0.92578 -0.27344 -1.6719 -0.8125 -2.2344 c -0.54297 -0.57031 -1.25 -0.85938 -2.125 -0.85938 c -0.94922 0 -1.7188 0.26562 -2.3125 0.79688 s -0.96484 1.2969 -1.1094 2.2969 z" stroke-linecap="round"/>
</g>
		<g transform="matrix(1.3333 0 0 1.3333 64.8126 419.1355)">
<path style="stroke: none; stroke-width: 1; stroke-dasharray: none; stroke-linecap: butt; stroke-dashoffset: 0; stroke-linejoin: miter; stroke-miterlimit: 4; is-custom-font: none; font-file-url: none; fill: #525252; fill-rule: nonzero; opacity: 1;" transform=" translate(-7.9612, 7.6481)" d="m 14.719 -14.828 v 3.9844 c -0.65625 -0.45703 -1.3242 -0.79688 -2 -1.0156 c -0.66797 -0.21875 -1.3594 -0.32812 -2.0781 -0.32812 c -1.3672 0 -2.4336 0.40234 -3.2031 1.2031 c -0.76172 0.79297 -1.1406 1.9062 -1.1406 3.3438 c 0 1.4297 0.37891 2.543 1.1406 3.3438 c 0.76953 0.79297 1.8359 1.1875 3.2031 1.1875 c 0.75781 0 1.4844 -0.10938 2.1719 -0.32812 c 0.6875 -0.22656 1.3203 -0.56641 1.9062 -1.0156 v 4 c -0.76172 0.28125 -1.5391 0.48828 -2.3281 0.625 c -0.78125 0.14453 -1.5742 0.21875 -2.375 0.21875 c -2.7617 0 -4.9219 -0.70703 -6.4844 -2.125 c -1.5547 -1.4141 -2.3281 -3.3828 -2.3281 -5.9062 c 0 -2.5312 0.77344 -4.5039 2.3281 -5.9219 c 1.5625 -1.4141 3.7227 -2.125 6.4844 -2.125 c 0.80078 0 1.5938 0.074219 2.375 0.21875 c 0.78125 0.13672 1.5547 0.35156 2.3281 0.64062 z" stroke-linecap="round"/>
</g>
		<g transform="matrix(1.3333 0 0 1.3333 85.0727 416.2292)">
<path style="stroke: none; stroke-width: 1; stroke-dasharray: none; stroke-linecap: butt; stroke-dashoffset: 0; stroke-linejoin: miter; stroke-miterlimit: 4; is-custom-font: none; font-file-url: none; fill: #525252; fill-rule: nonzero; opacity: 1;" transform=" translate(-6.5625, 9.8278)" d="m 7.7031 -19.656 v 4.3438 h 5.0469 v 3.5 h -5.0469 v 6.5 c 0 0.71094 0.14062 1.1875 0.42188 1.4375 s 0.83594 0.375 1.6719 0.375 h 2.5156 v 3.5 h -4.1875 c -1.9375 0 -3.3125 -0.39844 -4.125 -1.2031 c -0.80469 -0.8125 -1.2031 -2.1797 -1.2031 -4.1094 v -6.5 h -2.4219 v -3.5 h 2.4219 v -4.3438 z" stroke-linecap="round"/>
</g>
</g>
</g>
</svg>